<svg width="48" height="48" viewBox="0 0 48 48" fill="none" xmlns="http://www.w3.org/2000/svg">
<g clip-path="url(#clip0_753_550)">
<path d="M32.5 44C30.722 44 29.499 43.423 28.42 42.914C27.38 42.424 26.481 42 25 42C23.519 42 22.62 42.424 21.58 42.914C20.501 43.423 19.278 44 17.5 44C13.174 44 6 34.071 6 23.5C6 16.49 10.832 11 17 11C19.027 11 20.259 11.581 21.346 12.093C22.378 12.58 23.27 13 25 13C26.73 13 27.622 12.58 28.654 12.093C29.741 11.581 30.973 11 33 11C35.664 11 38.033 11.982 40.042 13.921C40.38 14.247 40.546 14.714 40.489 15.181C40.432 15.648 40.16 16.061 39.754 16.297C37.438 17.644 36 20.499 36 23.75C36 27.411 38.004 30.559 40.986 31.581C41.377 31.715 41.695 32.004 41.865 32.38C42.036 32.755 42.045 33.185 41.888 33.568C39.461 39.515 35.424 44 32.5 44ZM25.5 9.99999C25.142 9.99999 24.792 9.87199 24.516 9.63199C24.153 9.31599 23.962 8.84399 24.006 8.36299C24.018 8.23999 24.309 5.31799 26.599 2.98099C28.753 0.780989 30.85 0.12699 31.081 0.0589895C31.57 -0.0830105 32.098 0.0329895 32.482 0.36699C32.867 0.69999 33.056 1.20599 32.985 1.71099C32.951 1.95199 32.596 4.14699 30.753 6.60999C28.78 9.24599 25.962 9.93199 25.843 9.95999C25.729 9.98699 25.614 9.99999 25.5 9.99999Z" fill="#111111"/>
</g>
<defs>
<clipPath id="clip0_753_550">
<rect width="48" height="48" fill="white"/>
</clipPath>
</defs>
</svg>
